<?xml version="1.0" standalone="no"?>
<!DOCTYPE svg PUBLIC "-//W3C//DTD SVG 20010904//EN"
 "http://www.w3.org/TR/2001/REC-SVG-20010904/DTD/svg10.dtd">
<svg version="1.0" xmlns="http://www.w3.org/2000/svg"
 width="512.000000pt" height="512.000000pt" viewBox="0 0 512.000000 512.000000"
 preserveAspectRatio="xMidYMid meet">
<metadata>
Created by potrace 1.14, written by Peter Selinger 2001-2017
</metadata>
<g transform="translate(0.000000,512.000000) scale(0.100000,-0.100000)"
fill="#000000" stroke="none">
<path d="M4458 4994 c-84 -15 -210 -56 -300 -98 -31 -14 -60 -26 -64 -26 -10
0 -276 -146 -344 -188 -30 -19 -78 -50 -107 -68 -28 -19 -55 -34 -58 -34 -4 0
-75 34 -159 75 -330 163 -621 230 -991 229 -160 -1 -269 -9 -375 -30 -14 -2
-38 -7 -55 -10 -102 -18 -329 -89 -435 -136 -119 -53 -397 -210 -420 -238 -3
-3 -25 -21 -50 -40 -216 -164 -417 -391 -558 -630 -124 -210 -214 -439 -258
-655 -40 -202 -47 -266 -47 -455 -1 -216 18 -370 69 -572 43 -172 130 -390
204 -510 17 -26 30 -54 30 -61 0 -8 -32 -65 -71 -128 -120 -194 -197 -341
-279 -534 -22 -51 -59 -187 -70 -257 -12 -72 -10 -162 5 -232 11 -51 56 -127
102 -173 51 -49 81 -67 160 -93 67 -22 217 -21 313 3 220 53 512 197 826 404
l114 75 92 -30 c361 -119 747 -149 1098 -87 357 64 735 236 1006 460 195 160
359 346 490 555 88 140 182 345 232 510 70 227 96 403 96 655 0 258 -34 470
-116 712 l-31 93 65 97 c122 184 262 433 317 563 13 30 29 69 36 85 23 51 46
127 64 210 44 200 14 353 -90 457 -103 103 -250 138 -441 102z m145 -443 c-13
-103 -102 -305 -228 -517 -42 -71 -79 -131 -82 -134 -2 -3 -8 2 -13 10 -12 21
-123 169 -155 205 -14 17 -64 68 -110 115 l-85 86 88 51 c222 130 437 222 552
235 32 4 39 -6 33 -51z m-1918 -85 c47 -9 98 -18 120 -21 49 -7 241 -64 310
-93 373 -157 658 -399 869 -736 34 -54 53 -93 48 -100 -185 -244 -397 -505
-539 -662 -35 -40 -72 -81 -81 -92 -215 -247 -679 -715 -938 -947 -49 -44
-103 -93 -121 -110 -120 -114 -422 -365 -621 -517 l-140 -107 -88 55 c-235
148 -420 326 -567 548 -62 94 -177 319 -177 347 0 8 -4 19 -9 25 -18 20 -71
218 -93 349 -14 88 -17 404 -5 500 90 671 552 1244 1184 1468 221 78 394 105
643 101 96 -1 189 -5 205 -8z m1550 -1546 c12 -80 14 -408 2 -470 -2 -14 -8
-47 -12 -75 -21 -145 -84 -341 -160 -495 -239 -486 -691 -844 -1220 -966 -21
-5 -102 -19 -175 -31 -61 -10 -401 -9 -472 1 -31 4 -77 13 -102 19 l-46 12 63
50 c94 75 223 182 312 259 44 38 94 80 110 94 35 29 86 76 245 221 141 128
709 697 804 804 37 42 85 94 105 116 38 41 50 54 146 166 33 38 70 81 83 95
13 14 69 81 125 150 56 69 108 131 115 139 7 8 21 25 30 39 l16 25 9 -34 c5
-19 15 -72 22 -119z m-3210 -1940 c44 -36 96 -77 115 -90 19 -14 41 -30 47
-36 7 -7 18 -14 25 -17 18 -6 17 -7 -126 -92 -221 -130 -423 -218 -522 -227
l-39 -3 -1 40 c-1 89 86 300 223 537 l57 98 70 -72 c39 -39 107 -101 151 -138z"/>
</g>
</svg>
